Coordinates
version=1
nRows=60
nColumns=12
inDegrees=yes

Units are S.I. units (second, meters, Newtons, ...)
Angles are in degrees

endheader
time	SC_y	SC_z	SC_x	AC_y	AC_z	AC_x	GH_y	GH_z	GH_yy	EL_x	PS_y
       0.0              -43.01          11.07          76.54          42.41         -1.005          18.82          94.36          12.63         -57.34           35.9          56.04
   0.04292              -43.01          11.07          76.54          42.41         -1.005          18.82          94.35          12.64         -57.32          35.91          56.04
   0.08584              -43.01          11.07          76.53          42.42         -1.004          18.81          94.33          12.64         -57.29          35.92          56.04
    0.1288               -43.0          11.07          76.53          42.42         -1.004           18.8          94.31          12.64         -57.26          35.93          56.04
    0.1717               -43.0          11.07          76.52          42.43         -1.004           18.8          94.29          12.64         -57.23          35.95          56.03
    0.2146               -43.0          11.07          76.52          42.43         -1.004          18.79          94.27          12.64          -57.2          35.96          56.03
    0.2575               -43.0          11.08          76.51          42.43         -1.003          18.78          94.25          12.65         -57.17          35.97          56.03
    0.3004               -43.0          11.08           76.5          42.44         -1.003          18.78          94.23          12.65         -57.13          35.99          56.02
    0.3434              -42.99          11.08           76.5          42.45         -1.003          18.77           94.2          12.65         -57.09           36.0          56.02
    0.3863              -42.99          11.08          76.49          42.45         -1.002          18.76          94.17          12.66         -57.05          36.02          56.02
    0.4292              -42.99          11.08          76.48          42.46         -1.002          18.75          94.14          12.66          -57.0          36.03          56.01
    0.4721              -42.99          11.08          76.47          42.46         -1.001          18.74          94.11          12.67         -56.96          36.05          56.01
     0.515              -42.98          11.09          76.46          42.47         -1.001          18.73          94.08          12.67          -56.9          36.07          56.01
     0.558              -42.98          11.09          76.45          42.48           -1.0          18.71          94.04          12.67         -56.85          36.09           56.0
    0.6009              -42.98          11.09          76.44          42.49        -0.9999           18.7           94.0          12.68         -56.79          36.12           56.0
    0.6438              -42.97          11.09          76.43           42.5        -0.9993          18.69          93.96          12.68         -56.72          36.14          55.99
    0.6867              -42.97           11.1          76.42          42.51        -0.9986          18.67          93.92          12.69         -56.65          36.17          55.98
    0.7296              -42.96           11.1           76.4          42.52        -0.9979          18.66          93.87           12.7         -56.57           36.2          55.98
    0.7726              -42.96           11.1          76.39          42.53        -0.9972          18.64          93.81           12.7         -56.48          36.23          55.97
    0.8155              -42.95          11.11          76.37          42.55        -0.9963          18.62          93.75          12.71         -56.39          36.27          55.96
    0.8584              -42.95          11.11          76.35          42.56        -0.9954          18.59          93.68          12.72         -56.28          36.31          55.95
    0.9013              -42.94          11.11          76.33          42.58        -0.9944          18.57          93.61          12.73         -56.17          36.35          55.94
    0.9442              -42.93          11.12          76.31           42.6        -0.9932          18.54          93.53          12.74         -56.04           36.4          55.93
    0.9871              -42.92          11.12          76.28          42.62         -0.992          18.51          93.44          12.75          -55.9          36.45          55.92
      1.03              -42.91          11.13          76.25          42.64        -0.9906          18.48          93.34          12.76         -55.75          36.51          55.91
     1.073               -42.9          11.14          76.22          42.66         -0.989          18.44          93.23          12.78         -55.58          36.58          55.89
     1.116              -42.89          11.14          76.19          42.69        -0.9873           18.4          93.11          12.79         -55.38          36.65          55.88
     1.159              -42.88          11.15          76.15          42.72        -0.9854          18.36          92.97          12.81         -55.17          36.74          55.86
     1.202              -42.87          11.16           76.1          42.76        -0.9831           18.3          92.81          12.83         -54.92          36.83          55.84
     1.245              -42.85          11.17          76.05           42.8        -0.9806          18.24          92.64          12.86         -54.64          36.94          55.81
     1.288              -42.83          11.19          75.99          42.84        -0.9778          18.18          92.43          12.88         -54.32          37.06          55.79
     1.331              -42.81           11.2          75.92          42.89        -0.9745           18.1           92.2          12.91         -53.95           37.2          55.76
     1.373              -42.78          11.22          75.85          42.96        -0.9707          18.01          91.93          12.95         -53.53          37.36          55.72
     1.416              -42.75          11.24          75.76          43.03        -0.9663           17.9          91.62          12.99         -53.04          37.55          55.68
     1.459              -42.72          11.26          75.65          43.11        -0.9612          17.78          91.25          13.03         -52.47          37.77          55.63
     1.502              -42.68          11.29          75.53           43.2        -0.9551          17.64          90.82          13.09         -51.79          38.03          55.57
     1.545              -42.63          11.32          75.38          43.32        -0.9479          17.46           90.3          13.16         -50.98          38.33           55.5
     1.588              -42.58          11.35          75.21          43.46        -0.9392          17.26          89.69          13.23         -50.02           38.7          55.42
     1.631              -42.51           11.4          74.99          43.63        -0.9287          17.01          88.94          13.33         -48.85          39.15          55.32
     1.674              -42.42          11.46          74.73          43.83        -0.9159          16.71          88.03          13.45         -47.42          39.69           55.2
     1.717              -42.32          11.52          74.41          44.08        -0.9002          16.33          86.91          13.59         -45.66          40.37          55.06
      1.76              -42.19          11.61          74.01           44.4        -0.8805          15.86          85.51          13.77         -43.47           41.2          54.87
     1.803              -42.03          11.72          73.51          44.79        -0.8557          15.27          83.75           14.0          -40.7          42.26          54.64
     1.846              -41.82          11.86          72.87           45.3        -0.8241          14.52           81.5          14.29         -37.19           43.6          54.34
     1.888              -41.55          12.03          72.05          45.94        -0.7838          13.56          78.63          14.66         -32.69          45.32          53.96
     1.931              -41.21          12.26          70.99          46.77         -0.732          12.33          74.95          15.13         -26.92          47.53          53.47
     1.974              -40.78          12.55          69.65          47.82        -0.6659          10.76          70.25          15.74         -19.54          50.35          52.85
     2.017              -40.23          12.91          67.96          49.15        -0.5827          8.781          64.33           16.5         -10.27          53.89          52.06
      2.06              -39.57          13.35           65.9          50.77        -0.4814           6.37          57.12          17.43          1.032          58.21          51.11
     2.103              -38.79          13.86          63.51          52.64        -0.3639          3.577          48.77           18.5          14.13          63.21           50.0
     2.146              -37.96          14.42          60.92          54.67        -0.2367         0.5518          39.72          19.67          28.31          68.63           48.8
     2.189              -37.12          14.97          58.33          56.71        -0.1095         -2.473          30.67          20.83           42.5          74.05           47.6
     2.232              -36.35          15.48          55.94          58.58       0.007952         -5.267          22.32           21.9           55.6          79.05          46.49
     2.275              -35.68          15.92          53.88           60.2         0.1093         -7.677          15.11          22.83           66.9          83.37          45.54
     2.318              -35.14          16.29          52.19          61.53         0.1925         -9.655          9.193          23.59          76.17          86.91          44.76
     2.361               -34.7          16.57          50.85          62.58         0.2586         -11.23          4.489           24.2          83.54          89.73          44.13
     2.403              -34.36           16.8          49.79          63.41         0.3104         -12.46         0.8057          24.67          89.32          91.93          43.64
     2.446              -34.09          16.98          48.97          64.05         0.3507         -13.42         -2.064          25.04          93.82          93.65          43.26
     2.489              -33.89          17.11          48.33          64.56         0.3822         -14.17         -4.306          25.33          97.33          94.99          42.97
     2.532              -33.72          17.22          47.83          64.95          0.407         -14.76          -6.07          25.56          100.1          96.05          42.73
